<svg xmlns="http://www.w3.org/2000/svg" xmlns:xlink="http://www.w3.org/1999/xlink" width="500" zoomAndPan="magnify" viewBox="0 0 375 374.999991" height="500" preserveAspectRatio="xMidYMid meet" version="1.0"><defs><g/><clipPath id="94805536c9"><path d="M 185 48.667969 L 287 48.667969 L 287 225 L 185 225 Z M 185 48.667969 " clip-rule="nonzero"/></clipPath><clipPath id="62f53adeaf"><path d="M 61 200 L 305 200 L 305 279.667969 L 61 279.667969 Z M 61 200 " clip-rule="nonzero"/></clipPath></defs><g clip-path="url(#94805536c9)"><path fill="#088989" d="M 236.578125 65.113281 C 285.910156 65.113281 270.074219 154.640625 262.765625 182.65625 C 259.71875 194.226562 251.195312 214.328125 249.976562 224.070312 C 254.847656 220.417969 272.511719 182.046875 274.945312 172.910156 C 284.082031 140.023438 307.226562 48.667969 243.277344 48.667969 C 242.058594 48.667969 240.839844 48.667969 240.230469 48.667969 C 228.050781 48.667969 215.261719 54.757812 207.34375 59.632812 C 202.472656 62.675781 186.636719 75.464844 185.417969 80.949219 C 197.597656 73.03125 210.386719 65.113281 230.488281 65.113281 C 232.3125 65.113281 234.140625 65.113281 235.96875 65.113281 Z M 236.578125 65.113281 " fill-opacity="1" fill-rule="evenodd"/></g><path fill="#5cc6d0" d="M 173.847656 87.039062 C 167.757812 82.773438 163.492188 78.511719 157.402344 74.25 C 148.875 68.765625 140.957031 64.503906 130.605469 64.503906 C 120.859375 64.503906 108.070312 74.25 105.632812 81.554688 C 102.589844 90.082031 97.109375 102.871094 97.109375 114.445312 C 97.109375 150.988281 108.070312 180.828125 124.515625 213.109375 C 128.167969 219.808594 132.433594 225.898438 137.304688 231.988281 C 144.003906 241.125 150.703125 247.214844 161.664062 248.433594 C 177.5 250.867188 185.417969 189.964844 197.597656 189.964844 L 201.863281 189.964844 C 207.953125 189.964844 226.222656 219.808594 231.703125 223.460938 C 230.488281 217.980469 221.960938 201.535156 218.914062 196.054688 C 215.261719 189.355469 207.953125 175.347656 198.816406 175.347656 L 196.378906 175.347656 C 185.417969 175.347656 181.15625 187.527344 176.890625 195.445312 C 174.457031 200.320312 173.238281 203.972656 170.800781 208.84375 C 162.882812 224.070312 157.402344 224.679688 144.613281 210.671875 C 136.695312 202.144531 130.605469 190.574219 126.949219 182.65625 C 115.988281 157.6875 109.289062 127.234375 118.425781 101.046875 C 122.078125 90.691406 128.167969 82.773438 137.914062 82.773438 L 138.523438 82.773438 C 153.140625 82.773438 172.019531 102.265625 181.765625 108.964844 C 196.378906 119.316406 212.214844 125.40625 232.3125 116.273438 C 200.035156 119.925781 185.417969 96.171875 173.847656 87.648438 Z M 173.847656 87.039062 " fill-opacity="1" fill-rule="evenodd"/><g clip-path="url(#62f53adeaf)"><path fill="#5cc6d0" d="M 182.980469 266.703125 C 117.816406 266.703125 64.21875 237.46875 61.175781 200.925781 C 61.175781 202.144531 61.175781 203.363281 61.175781 204.582031 C 61.175781 245.996094 115.988281 280.101562 182.980469 280.101562 C 249.976562 280.101562 304.789062 246.605469 304.789062 204.582031 C 304.789062 203.363281 304.789062 202.144531 304.789062 200.925781 C 301.742188 237.46875 248.757812 266.703125 182.980469 266.703125 Z M 182.980469 266.703125 " fill-opacity="1" fill-rule="evenodd"/></g><path fill="#5cc6d0" d="M 289.5625 193.617188 C 293.824219 187.527344 303.570312 185.09375 312.097656 188.136719 C 320.015625 191.183594 323.058594 197.882812 320.015625 203.972656 C 320.625 199.101562 316.96875 194.226562 310.878906 191.792969 C 302.960938 188.746094 292.609375 191.183594 288.34375 197.273438 C 288.34375 197.882812 287.734375 197.882812 287.734375 198.492188 C 287.734375 196.664062 288.34375 195.445312 289.5625 193.617188 Z M 289.5625 193.617188 " fill-opacity="1" fill-rule="evenodd"/><path fill="#5cc6d0" d="M 73.964844 193.617188 C 69.703125 187.527344 59.957031 185.09375 51.429688 188.136719 C 43.511719 191.183594 40.46875 197.882812 43.511719 203.972656 C 42.902344 199.101562 46.558594 194.226562 52.648438 191.792969 C 60.566406 188.746094 70.917969 191.183594 75.183594 197.273438 C 75.183594 197.882812 75.792969 197.882812 75.792969 198.492188 C 75.792969 196.664062 75.183594 195.445312 73.964844 193.617188 Z M 73.964844 193.617188 " fill-opacity="1" fill-rule="evenodd"/><g fill="#000000" fill-opacity="1"><g transform="translate(355.859296, 374.533327)"><g><path d="M 0.296875 -1.203125 C 0.242188 -1.203125 0.203125 -1.21875 0.171875 -1.25 C 0.140625 -1.28125 0.125 -1.316406 0.125 -1.359375 C 0.125 -1.410156 0.140625 -1.453125 0.171875 -1.484375 C 0.203125 -1.515625 0.242188 -1.53125 0.296875 -1.53125 C 0.328125 -1.53125 0.351562 -1.519531 0.375 -1.5 C 0.40625 -1.488281 0.425781 -1.46875 0.4375 -1.4375 C 0.445312 -1.414062 0.453125 -1.390625 0.453125 -1.359375 C 0.453125 -1.328125 0.445312 -1.300781 0.4375 -1.28125 C 0.425781 -1.257812 0.40625 -1.238281 0.375 -1.21875 C 0.351562 -1.207031 0.328125 -1.203125 0.296875 -1.203125 Z M 0.078125 0.453125 C 0.00390625 0.453125 -0.0546875 0.441406 -0.109375 0.421875 L -0.078125 0.21875 L -0.0625 0.203125 C -0.03125 0.210938 0 0.21875 0.03125 0.21875 C 0.113281 0.21875 0.15625 0.171875 0.15625 0.078125 L 0.15625 -1.078125 L 0.421875 -1.078125 L 0.421875 0.078125 C 0.421875 0.203125 0.390625 0.296875 0.328125 0.359375 C 0.273438 0.421875 0.191406 0.453125 0.078125 0.453125 Z M 0.078125 0.453125 "/></g></g></g></svg>