<?xml version="1.0" encoding="iso-8859-1"?>
<!-- Generator: Adobe Illustrator 19.0.0, SVG Export Plug-In . SVG Version: 6.00 Build 0)  -->
<svg version="1.1" id="Layer_1" xmlns="http://www.w3.org/2000/svg" xmlns:xlink="http://www.w3.org/1999/xlink" x="0px" y="0px"
	 viewBox="0 0 511.999 511.999" style="enable-background:new 0 0 511.999 511.999;" xml:space="preserve">
<path style="fill:#298983;" d="M311.127,261.135c0-0.19,0.009-0.38,0.011-0.57l-55.139-55.139l-54.308,54.308
	c-0.003,0.467-0.013,0.932-0.013,1.399c0,124.069,98.297,225.606,221.107,230.816V382.31
	C360.369,377.249,311.127,324.835,311.127,261.135z"/>
<rect x="97.526" y="131.569" transform="matrix(-0.7071 -0.7071 0.7071 -0.7071 114.4292 456.8744)" style="fill:#A5F2E5;" width="108.62" height="146.339"/>
<path style="fill:#62D9C7;" d="M356.266,124.032L256.182,23.947l-76.803,76.805L373.507,294.88l76.803-76.805l-43.783-43.783
	c-3.874-3.874-3.874-10.153,0-14.027l-36.233-36.233l0,0C366.419,127.904,360.139,127.905,356.266,124.032z"/>
<path d="M373.506,318.825c2.631,0,5.154-1.045,7.014-2.906l90.832-90.832c3.874-3.874,3.874-10.155,0-14.027l-50.797-50.797
	c-3.874-3.874-10.155-3.874-14.027,0l0,0c-3.874,3.874-3.874,10.155,0,14.027l43.783,43.783l-76.803,76.805L179.379,100.751
	l76.803-76.805L356.266,124.03c3.874,3.875,10.155,3.874,14.027,0l0,0c3.874-3.874,3.874-10.153,0-14.027L263.195,2.906
	C261.336,1.045,258.812,0,256.182,0c-0.061,0-0.122,0.008-0.183,0.009c-2.599-0.048-5.214,0.913-7.196,2.896L40.648,211.061
	c-3.874,3.874-3.874,10.155,0,14.027l90.832,90.832c1.936,1.936,4.476,2.906,7.013,2.906s5.077-0.968,7.014-2.906l36.973-36.973
	c9.168,130.045,117.886,233.052,250.224,233.052c5.478,0,9.919-4.441,9.919-9.919V372.792c0-5.478-4.441-9.919-9.919-9.919
	c-48.691,0-89.483-34.392-99.411-80.153l33.2,33.2C368.352,317.78,370.875,318.825,373.506,318.825z M422.785,491.951
	c-122.81-5.208-221.107-106.747-221.107-230.816c0-0.467,0.011-0.932,0.013-1.399l54.308-54.308l55.139,55.139
	c-0.001,0.19-0.011,0.38-0.011,0.57c0,63.699,49.24,116.112,111.657,121.176v109.638H422.785z M138.493,294.879l-76.805-76.805
	l103.479-103.479l76.805,76.805L138.493,294.879z"/>
<g>
</g>
<g>
</g>
<g>
</g>
<g>
</g>
<g>
</g>
<g>
</g>
<g>
</g>
<g>
</g>
<g>
</g>
<g>
</g>
<g>
</g>
<g>
</g>
<g>
</g>
<g>
</g>
<g>
</g>
</svg>
